<?xml version="1.0" encoding="iso-8859-1"?>
<!-- Generator: Adobe Illustrator 16.2.0, SVG Export Plug-In . SVG Version: 6.00 Build 0)  -->
<!DOCTYPE svg PUBLIC "-//W3C//DTD SVG 1.1//EN" "http://www.w3.org/Graphics/SVG/1.1/DTD/svg11.dtd">
<svg version="1.1" id="&#x421;&#x43B;&#x43E;&#x439;_1"
	 xmlns="http://www.w3.org/2000/svg" xmlns:xlink="http://www.w3.org/1999/xlink" x="0px" y="0px" width="64px" height="75px"
	 viewBox="-11.728 -0.456 64 75" style="enable-background:new -11.728 -0.456 64 75;" xml:space="preserve">
<path d="M31.043,20.294C31.043,9.086,21.967,0,10.772,0C-0.424,0-9.5,9.086-9.5,20.294c0,10.523,8.001,19.173,18.245,20.191V53.44
	H-2.391v5.06H8.745v15.588h5.054V58.5h9.488v-5.06h-9.488V40.337C23.555,38.871,31.043,30.469,31.043,20.294z M-4.5,20.294
	c0-8.443,6.838-15.288,15.272-15.288c8.434,0,15.271,6.845,15.271,15.288s-6.838,15.288-15.271,15.288
	C2.338,35.582-4.5,28.737-4.5,20.294z"/>
</svg>
