<?xml version="1.0" encoding="iso-8859-1"?>
<!-- Generator: Adobe Illustrator 16.2.0, SVG Export Plug-In . SVG Version: 6.00 Build 0)  -->
<!DOCTYPE svg PUBLIC "-//W3C//DTD SVG 1.1//EN" "http://www.w3.org/Graphics/SVG/1.1/DTD/svg11.dtd">
<svg version="1.1" id="&#x421;&#x43B;&#x43E;&#x439;_1"
	 xmlns="http://www.w3.org/2000/svg" xmlns:xlink="http://www.w3.org/1999/xlink" x="0px" y="0px" width="64px" height="75px"
	 viewBox="0 0 64 75" style="enable-background:new 0 0 64 75;" xml:space="preserve">
<path style="fill-rule:evenodd;clip-rule:evenodd;" d="M58.783,20.9l4.721-15.872L47.315,6.006l3.56,4.624L34.61,23.768
	c-4.95-4.627-12.087-6.688-19.106-4.8C4.692,21.875-1.713,33.007,1.198,43.83c2.911,10.824,14.036,17.241,24.847,14.333
	s17.217-14.039,14.306-24.862c-0.477-1.774-1.194-3.416-2.075-4.931l16.19-13.077L58.783,20.9z M24.674,53.063
	c-7.997,2.15-16.227-2.597-18.38-10.604c-2.153-8.004,2.584-16.238,10.582-18.391c7.997-2.15,16.227,2.597,18.38,10.604
	C37.408,42.676,32.671,50.91,24.674,53.063z"/>
</svg>
