<?xml version="1.0" encoding="iso-8859-1"?>
<!-- Generator: Adobe Illustrator 16.2.0, SVG Export Plug-In . SVG Version: 6.00 Build 0)  -->
<!DOCTYPE svg PUBLIC "-//W3C//DTD SVG 1.1//EN" "http://www.w3.org/Graphics/SVG/1.1/DTD/svg11.dtd">
<svg version="1.1" id="Layer_1" xmlns="http://www.w3.org/2000/svg" xmlns:xlink="http://www.w3.org/1999/xlink" x="0px" y="0px"
	 width="490.022px" height="138.642px" viewBox="0 0 490.022 138.642" style="enable-background:new 0 0 490.022 138.642;"
	 xml:space="preserve">
<g>
	<path d="M115.87,87.25c-1.143,0-1.321-0.058-3.024-0.604l-1.766-0.559c-3.412-1.023-4.49-4.553-5.495-11.589
		c0-0.001-10.752-73.024-10.752-73.024c-0.142-0.995-0.575-4.026-2.547-4.026c-1.358,0-2.177,1.235-2.989,3.091
		c0.006-0.012-28.146,59.085-31.753,66.658L25.669,1.35c-1.514-3.029-2.314-3.903-3.573-3.903c-0.832,0-1.928,0.594-2.427,3.423
		c-0.001,0.01-11.7,77.051-11.7,77.054c-0.632,4.297-1.616,8.359-4.513,8.98C1.731,87.25,0.929,87.25,0,87.25
		c-1.537,0-2.315,0.421-2.315,1.252c0,1.725,1.921,1.725,2.552,1.725c2.144,0,4.87-0.113,7.276-0.212
		c1.853-0.076,3.454-0.143,4.421-0.143c0.833,0,2.202,0.056,3.786,0.122c2.5,0.104,5.614,0.232,8.622,0.232
		c1.14,0,3.26,0,3.26-1.725c0-0.377-0.214-1.252-2.197-1.252c-1.499,0-3.137-0.195-4.871-0.581c-2.159-0.509-3.212-1.61-3.212-3.366
		c0-1.956,0.129-3.5,0.352-5.507c-0.002,0.007,5.32-40.723,6.058-46.367l5.414,11.513c3.072,6.517,5.976,12.672,6.621,14.178
		c1.414,3.297,10.597,21.09,13.603,26.851c0.001,0.003,0.364,0.685,0.364,0.685c1.869,3.515,2.898,5.451,4.148,5.451
		c1.353,0,1.985-1.197,4.753-6.854c0.001-0.003,22.906-47.705,25.516-53.137l7.003,51.353c0.381,2.667,0.33,3.902-0.187,4.561
		c-0.572,0.73-1.934,0.9-4.108,1.116c-1.163,0.117-1.683,0.938-1.683,1.698c0,0.342,0.116,0.625,0.344,0.84
		c0.69,0.648,2.241,0.555,5.639,0.348c2.34-0.143,5.546-0.337,9.674-0.337c2.637,0,5.725,0.166,8.448,0.312
		c2.196,0.119,4.093,0.221,5.408,0.221c3.042,0,3.497-1.08,3.497-1.725C118.185,87.25,116.621,87.25,115.87,87.25z"/>
	<path d="M487.707,87.474c-1.145,0-1.322-0.058-3.026-0.604l-1.764-0.559
		c-3.412-1.023-4.491-4.553-5.495-11.589c0-0.001-10.753-73.024-10.753-73.024c-0.143-0.995-0.575-4.026-2.547-4.026
		c-1.358,0-2.178,1.235-2.99,3.09c0.006-0.011-28.146,59.086-31.752,66.659L397.507,1.574c-1.515-3.029-2.315-3.903-3.573-3.903
		c-0.832,0-1.928,0.594-2.427,3.423c-0.002,0.01-11.7,77.051-11.701,77.054c-0.632,4.297-1.616,8.36-4.512,8.98
		c-1.727,0.346-2.528,0.346-3.456,0.346c-1.537,0-2.316,0.421-2.316,1.252c0,1.725,1.922,1.725,2.553,1.725
		c2.145,0,4.87-0.113,7.274-0.213c1.854-0.076,3.455-0.143,4.423-0.143c0.833,0,2.202,0.057,3.786,0.123
		c2.5,0.104,5.612,0.232,8.62,0.232c1.141,0,3.263,0,3.263-1.725c0-0.377-0.215-1.252-2.198-1.252c-1.498,0-3.137-0.195-4.87-0.581
		c-2.16-0.509-3.213-1.61-3.213-3.366c0-1.959,0.129-3.503,0.353-5.507c-0.001,0.007,5.319-40.716,6.058-46.365l5.407,11.499
		c3.076,6.523,5.982,12.685,6.628,14.191c1.404,3.276,10.593,21.083,13.602,26.851c0.002,0.003,0.363,0.682,0.363,0.682
		c1.87,3.517,2.9,5.455,4.149,5.455c1.352,0,1.985-1.197,4.754-6.855c0.002-0.002,22.909-47.708,25.516-53.138l7.004,51.354
		c0.38,2.667,0.329,3.902-0.188,4.561c-0.573,0.73-1.935,0.9-4.11,1.116c-1.162,0.117-1.682,0.938-1.682,1.699
		c0,0.342,0.115,0.624,0.344,0.84c0.689,0.648,2.241,0.555,5.639,0.348c2.341-0.143,5.546-0.338,9.675-0.338
		c2.637,0,5.723,0.166,8.447,0.313c2.196,0.118,4.094,0.221,5.408,0.221c3.043,0,3.497-1.08,3.497-1.725
		C490.022,87.474,488.458,87.474,487.707,87.474z"/>
	<g>
		<path d="M213.243,87.203c-0.716,0-0.784-0.025-0.981-0.104c-0.203-0.079-0.508-0.198-1.322-0.36
			c-2.608-0.622-5.859-2.612-10.088-12.628c-4.245-10.081-12.211-30.064-18.613-46.12c-5.069-12.716-9.448-23.698-10.694-26.554
			c-1.188-2.734-1.992-4.036-3.343-4.036c-1.482,0-2.266,1.52-3.702,4.988c-0.002,0.005-29.66,74.21-29.66,74.21
			c-2.548,6.371-4.749,9.724-9.705,10.37c-0.382,0.048-0.601,0.097-0.777,0.137c-0.259,0.058-0.43,0.096-1.038,0.096
			c-0.456,0-1.843,0-1.843,1.371c0,1.606,1.671,1.606,2.67,1.606c4.218,0,7.691-0.163,9.989-0.271
			c1.022-0.048,1.762-0.083,2.162-0.083c1.808,0,4.015,0.089,6.148,0.175c2.193,0.088,4.461,0.18,6.376,0.18
			c0.791,0,2.434,0,2.434-1.606c0-1.266-1.039-1.371-2.197-1.371h-1.772c-3.813,0-4.302-1.73-4.302-3.238
			c0-1.297,0.545-4.057,1.743-7.05c0.002-0.007,6.383-16.905,6.383-16.905c0.224-0.671,0.363-0.671,0.666-0.671h26.446
			c0.292,0,0.431,0.028,0.664,0.667c0.002,0.003,8.644,22.921,8.644,22.921c0.486,1.169,0.507,2.088,0.069,2.743
			c-0.599,0.899-2.175,1.415-4.322,1.415c-1.38,0-2.079,0.5-2.079,1.488c0,0.296,0.11,0.562,0.318,0.765
			c0.787,0.767,3.061,0.707,8.045,0.58c2.507-0.064,5.627-0.146,9.489-0.146c2.932,0,5.142,0.114,7.279,0.224
			c1.846,0.094,3.591,0.184,5.59,0.184c1.796,0,3.283-0.121,3.283-1.606C215.204,87.203,213.929,87.203,213.243,87.203z
			 M175.881,52.582H154.14c-0.049,0-0.069-0.007-0.079-0.011c-0.01-0.025-0.022-0.111,0.017-0.275l10.859-29.034l0.008-0.023
			l0.006-0.023c0.089-0.36,0.198-0.576,0.271-0.679c0.07,0.144,0.138,0.413,0.178,0.576l0.026,0.103l0.005,0.022l0.008,0.021
			l10.634,29.185c0.019,0.055,0.017,0.09,0.013,0.105C176.08,52.552,176.033,52.582,175.881,52.582z"/>
	</g>
	<path d="M354.533,87.203c-1.761,0-4.333-0.236-5.966-0.468c-3.211-0.428-4.011-2.234-4.364-5.417
		c-0.47-5.052-0.47-14.221-0.47-25.829V34.692c0-18.011,0-21.256,0.235-25.023c0.242-4.231,1.258-5.832,4.025-6.343
		c1.379-0.231,2.297-0.348,3.468-0.348c0.634,0,2.315,0,2.315-1.606C353.777,0,351.74,0,350.871,0c-2.487,0-5.75,0.109-8.628,0.205
		c-2.301,0.077-4.473,0.149-5.788,0.149c-1.592,0-4.069-0.077-6.694-0.159C326.682,0.099,323.497,0,321.094,0
		c-1.139,0-3.26,0-3.26,1.371c0,1.606,1.682,1.606,2.314,1.606c1.636,0,3.029,0.154,4.142,0.458
		c2.409,0.548,3.478,2.353,3.706,6.232c0.235,3.769,0.235,7.014,0.235,25.025v20.796c0,11.604,0,20.771-0.588,25.709
		c-0.384,3.713-1.191,5.161-3.089,5.541c-1.411,0.313-2.772,0.464-4.17,0.464c-0.573,0-2.315,0-2.315,1.371
		c0,1.066,0.938,1.606,2.788,1.606c2.695,0,6.229-0.113,9.346-0.213c2.35-0.076,4.377-0.142,5.543-0.142
		c1.238,0,3.089,0.054,5.432,0.12c3.671,0.104,8.238,0.234,13.001,0.234c2.41,0,2.671-1.123,2.671-1.606
		C356.85,87.948,356.448,87.203,354.533,87.203z"/>
	<path d="M307.586,87.203c-0.868,0-2.27-0.071-4.41-0.692c-2.876-0.871-4.684-2.133-6.904-4.824
		c-1.969-2.361-11.856-17.166-19.8-29.062l-7.723-11.531l20.086-28.37c3.53-5.178,5.822-8.382,8.386-9.051
		c1.619-0.461,3.01-0.695,4.146-0.695c2.091,0,2.316-1.041,2.316-1.488c0-0.448-0.249-1.489-2.552-1.489
		c-2.529,0-5.16,0.115-7.482,0.218c-1.666,0.073-3.105,0.136-4.098,0.136c-0.914,0-2.305-0.06-3.915-0.129
		C283.329,0.125,280.458,0,277.734,0c-1.928,0-2.906,0.5-2.906,1.489c0,0.932,0.689,1.488,1.844,1.488c0.886,0,2.536,0,3.659,0.336
		c1.054,0.316,1.705,1.139,1.705,1.72c0,0.845-0.331,2.682-1.244,4.279c-1.193,2.228-8.755,13.343-14.275,21.459l-2.335,3.434
		l-4.766-7.34c-3.94-6.029-8.406-12.862-11.873-18.739c-0.808-1.349-1.274-2.672-1.305-3.233c-0.021-0.409,0.085-1.145,1.031-1.466
		c0.862-0.33,2.313-0.45,3.029-0.45c0.896,0,1.472-0.167,1.812-0.527c0.24-0.252,0.351-0.583,0.329-0.984
		C252.369,0.114,250.936,0,249.597,0c-2.716,0-6.346,0.139-8.997,0.24c-1.679,0.063-3.006,0.114-3.627,0.114
		c-3.234,0-7.92-0.123-11.685-0.221C222.546,0.063,220.18,0,218.992,0c-1.331,0-2.063,0.174-2.451,0.583
		c-0.204,0.216-0.303,0.496-0.287,0.811c0.052,0.991,0.675,1.583,1.668,1.583c1.088,0,2.941,0.212,4.881,0.808
		c3.892,1.204,6.801,3.721,10.042,8.688c0,0.001,20.546,31.319,22.555,34.38l-22.086,31.075c-3.878,5.477-5.919,7.35-9.494,8.712
		l-0.258,0.098c-1.229,0.469-1.229,0.469-1.723,0.465l-0.199-0.001c-1.263,0-2.079,0.584-2.079,1.489
		c0,0.557,0.286,1.488,2.197,1.488h2.009c0.917,0,2.244-0.08,3.648-0.166c1.513-0.093,3.079-0.188,4.236-0.188
		c1.975,0,5.965,0.159,8.606,0.265c1.312,0.053,2.26,0.09,2.502,0.09h2.127c0.904,0,2.787,0,2.787-1.488
		c0-0.977-0.926-1.489-1.842-1.489c-0.937,0-1.981-0.119-2.647-0.23c-0.862-0.192-1.798-0.775-1.894-1.636
		c-0.107-1.187,0.473-2.9,1.593-4.691c-0.003,0.005,14.749-22.854,17.208-26.666c5.931,9.054,12.795,19.875,18.452,29.09
		c0.734,1.245,0.931,2.137,0.598,2.721c-0.436,0.763-1.905,1.166-4.249,1.166c-0.917,0-1.501,0.167-1.841,0.525
		c-0.217,0.228-0.322,0.532-0.304,0.878c0.096,1.826,1.297,1.795,7.07,1.646c2.345-0.061,5.557-0.145,9.847-0.145
		c5.831,0,8.653,0.13,10.715,0.226c1.138,0.053,2.037,0.094,3.063,0.094h3.545c1.08,0,1.839-0.225,2.259-0.666
		c0.247-0.26,0.367-0.594,0.349-0.962C309.575,88.146,309.336,87.203,307.586,87.203z"/>
</g>
<g>
	<path d="M6.102,101.846l19.375,14.801l19.374-14.801v36.179H34.315v-13.207l-8.838,6.834l-8.84-6.782v13.155H6.102V101.846z"/>
	<path d="M58.47,138.024H46.188l21.172-36.179l21.174,36.179H76.251l-2.159-4.47H60.628L58.47,138.024z M63.917,126.049h6.887
		L67.36,118.6L63.917,126.049z"/>
	<path d="M101.844,102.462l4.934,9.661l6.27-9.661h12.23l-11.409,16.753l12.848,18.81h-14.39l-5.55-10.278l-6.064,10.278H87.146
		l12.437-17.473l-11.923-18.09H101.844z"/>
	<path d="M128.415,138.024v-35.563h12.333v35.563H128.415z"/>
	<path d="M145.22,101.846l19.374,14.801l19.375-14.801v36.179h-10.535v-13.207l-8.839,6.834l-8.839-6.782v13.155H145.22V101.846z"/>
	<path d="M187.207,120.243c0-10.535,9.044-18.397,19.528-18.397c10.844,0,19.734,7.605,19.734,17.987
		c0,10.586-9.147,18.809-19.631,18.809S187.207,130.675,187.207,120.243z M206.734,127.54c4.163,0,7.4-3.392,7.4-7.503
		s-3.187-7.502-7.4-7.502c-4.06,0-7.194,3.545-7.194,7.604C199.54,124.148,202.778,127.54,206.734,127.54z"/>
	<path d="M253.964,116.44v-13.979h12.333v36.18l-24.257-14.597v13.979h-12.333v-36.179L253.964,116.44z"/>
	<path d="M283.103,129.184H297.8v8.841h-27.031v-35.563h12.334V129.184z"/>
	<path d="M302.271,138.024v-35.563h12.334v35.563H302.271z"/>
	<path d="M343.332,116.44v-13.979h12.335v36.18l-24.257-14.597v13.979h-12.334v-36.179L343.332,116.44z"/>
	<path d="M387.17,111.711h-14.698v4.318h14.698v8.53h-14.698v4.624h14.698v8.841h-27.031v-35.563h27.031V111.711z"/>
	<path d="M391.641,126.513h11.821v11.512h-11.821V126.513z"/>
	<path d="M407.881,102.462h20.145c7.04,0,13.465,4.111,13.465,10.689c0,3.135-1.696,7.246-5.241,9.559l10.586,15.314h-15.212
		l-6.167-9.97h-5.242v9.97h-12.333V102.462z M420.214,119.318h4.111c2.673,0,4.523-1.183,4.523-4.215
		c0-2.467-0.925-4.213-4.421-4.213h-4.214V119.318z"/>
	<path d="M457.728,102.462v19.117c0,3.032,0.359,6.27,4.728,6.27c3.906,0,4.522-2.055,4.522-6.372v-19.015h12.334v21.276
		c0,10.688-8.223,14.903-16.856,14.903c-8.891,0-17.061-4.678-17.061-15.623v-20.557H457.728z"/>
</g>
</svg>
