<svg version="1.0" xmlns="http://www.w3.org/2000/svg"
 width="333.000000pt" height="129.000000pt" viewBox="0 0 333.000000 129.000000"
 preserveAspectRatio="xMidYMid meet">
<g transform="translate(0.000000,129.000000) scale(0.100000,-0.100000)" stroke="none">
<path d="M2872 1118 l3 -133 27 -3 c37 -4 88 -64 88 -103 0 -69 -57 -152 -205
-301 -78 -79 -165 -165 -193 -191 -29 -26 -52 -52 -52 -57 0 -6 75 -10 189
-10 l189 0 75 78 c104 107 207 237 207 260 0 4 5 13 12 20 29 29 82 238 73
286 -28 132 -89 216 -194 262 -43 19 -71 24 -138 24 l-84 0 3 -132z"/>
<path d="M2743 1226 c-87 -32 -201 -138 -227 -211 -25 -71 -35 -122 -37 -180
-2 -117 -13 -107 104 -100 150 9 147 8 147 58 0 65 22 124 58 157 l33 29 -3
128 c-3 142 -5 145 -75 119z"/>
<path d="M2255 1139 c-33 -5 -94 -14 -135 -20 -41 -6 -78 -13 -82 -16 -12 -6
-10 -231 1 -238 6 -3 41 0 78 6 37 6 110 14 161 18 63 5 97 12 103 22 5 8 8
64 7 124 l-3 110 -35 1 c-19 1 -62 -3 -95 -7z"/>
<path d="M1875 1085 c-33 -8 -74 -14 -91 -15 -17 0 -37 -6 -43 -14 -8 -9 -10
-155 -9 -522 l3 -509 120 0 120 0 0 535 c0 612 12 550 -100 525z"/>
<path d="M1205 989 c-49 -10 -91 -18 -93 -19 -1 0 -1 -213 0 -472 l3 -473 105
0 105 0 3 482 c2 452 1 483 -15 491 -11 5 -52 2 -108 -9z"/>
<path d="M910 949 c-41 -5 -88 -12 -105 -17 l-30 -8 -3 -88 c-3 -105 3 -117
56 -105 20 5 65 9 99 9 34 0 73 4 87 10 26 9 26 11 26 110 l0 100 -27 -1 c-16
-1 -62 -5 -103 -10z"/>
<path d="M615 907 c-22 -7 -46 -16 -53 -20 -19 -13 -18 -853 2 -864 8 -4 50
-6 93 -3 l78 5 0 445 0 445 -40 2 c-22 1 -58 -4 -80 -10z"/>
<path d="M370 874 c-108 -19 -216 -35 -285 -43 -33 -4 -66 -10 -72 -14 -9 -6
-13 -35 -13 -88 0 -68 2 -79 18 -80 9 -1 56 0 104 1 85 2 117 -11 63 -24 l-25
-6 0 -301 0 -300 88 3 87 3 3 293 c1 190 -1 300 -8 312 -8 15 -21 20 -52 20
-32 0 -39 3 -30 12 6 6 56 14 110 17 61 4 105 11 115 20 24 19 25 176 1 185
-9 3 -19 5 -22 5 -4 -1 -41 -7 -82 -15z"/>
<path d="M2175 695 c-5 -2 -40 -6 -77 -10 l-68 -7 0 -119 0 -119 104 0 c135 0
136 1 136 123 0 127 -4 137 -49 136 -20 0 -40 -2 -46 -4z"/>
<path d="M833 583 c-23 -2 -46 -10 -53 -18 -7 -8 -10 -47 -8 -102 l3 -88 65
-3 c114 -5 111 -8 108 111 l-3 102 -35 1 c-19 1 -54 -1 -77 -3z"/>
<path d="M2715 279 c-115 -5 -220 -13 -233 -19 -22 -10 -23 -14 -20 -122 l3
-113 403 -5 c221 -3 407 -4 412 -2 6 2 10 58 10 138 l0 134 -182 -2 c-101 0
-277 -5 -393 -9z"/>
<path d="M2037 254 c-11 -11 -8 -232 3 -236 5 -1 85 -1 177 2 l168 5 0 115 0
115 -171 3 c-93 1 -173 -1 -177 -4z"/>
<path d="M1515 239 c-71 -4 -133 -7 -137 -8 -12 -2 -10 -211 2 -211 6 0 69 -1
140 -1 72 0 135 1 140 1 14 0 9 223 -5 225 -5 1 -68 -2 -140 -6z"/>
<path d="M843 223 c-74 -5 -76 -7 -71 -123 l3 -75 124 -5 c67 -3 127 -2 132 1
6 3 8 50 7 105 l-3 99 -65 1 c-36 0 -93 -1 -127 -3z"/>
</g>
</svg>
