<svg version="1.1" id="vk" xmlns="http://www.w3.org/2000/svg" xmlns:xlink="http://www.w3.org/1999/xlink" x="0px" y="0px"
	 width="548.357px" height="487px" viewBox="0 34.679 548.357 487" enable-background="new 0 34.679 548.357 487"
	 xml:space="preserve">
<path d="M545.45,400.298c-0.664-1.432-1.282-2.618-1.857-3.569c-9.515-17.136-27.695-38.167-54.532-63.103l-0.567-0.57l-0.283-0.28
	l-0.287-0.286h-0.288c-12.181-11.611-19.894-19.419-23.123-23.416c-5.91-7.613-7.234-15.32-4.004-23.13
	c2.282-5.899,10.854-18.36,25.695-37.397c7.808-10.089,13.99-18.175,18.557-24.267c32.931-43.78,47.208-71.756,42.828-83.939
	l-1.701-2.847c-1.144-1.714-4.093-3.282-8.846-4.712c-4.765-1.427-10.854-1.663-18.278-0.712l-82.225,0.568
	c-1.332-0.472-3.233-0.428-5.712,0.144c-2.475,0.572-3.713,0.859-3.713,0.859l-1.431,0.715l-1.136,0.859
	c-0.952,0.568-1.999,1.567-3.143,2.995c-1.137,1.423-2.088,3.093-2.848,4.996c-8.952,23.031-19.13,44.444-30.553,64.238
	c-7.043,11.803-13.512,22.032-19.418,30.693c-5.899,8.658-10.849,15.037-14.843,19.126c-4,4.093-7.609,7.372-10.852,9.849
	c-3.237,2.478-5.708,3.525-7.419,3.142c-1.715-0.383-3.33-0.763-4.859-1.143c-2.663-1.714-4.805-4.045-6.42-6.995
	c-1.622-2.95-2.714-6.663-3.285-11.136c-0.567-4.476-0.903-8.326-1-11.563c-0.089-3.233-0.048-7.806,0.146-13.706
	c0.198-5.903,0.287-9.897,0.287-11.991c0-7.234,0.141-15.085,0.424-23.555c0.288-8.47,0.521-15.181,0.716-20.125
	c0.194-4.949,0.284-10.185,0.284-15.705s-0.336-9.849-1-12.991c-0.656-3.138-1.663-6.184-2.99-9.137
	c-1.335-2.95-3.289-5.232-5.853-6.852c-2.569-1.618-5.764-2.902-9.564-3.856c-10.089-2.283-22.936-3.518-38.547-3.71
	c-35.4-0.38-58.147,1.906-68.235,6.855c-3.997,2.091-7.614,4.948-10.849,8.562c-3.427,4.189-3.905,6.475-1.431,6.851
	c11.422,1.711,19.508,5.804,24.267,12.275l1.715,3.429c1.334,2.474,2.666,6.854,3.999,13.134c1.331,6.28,2.19,13.227,2.568,20.837
	c0.95,13.897,0.95,25.793,0,35.689c-0.953,9.9-1.853,17.607-2.712,23.127s-2.144,9.993-3.855,13.418
	c-1.715,3.426-2.855,5.52-3.428,6.28c-0.571,0.76-1.047,1.239-1.425,1.427c-2.474,0.948-5.047,1.431-7.71,1.431
	c-2.667,0-5.901-1.334-9.707-4c-3.805-2.666-7.754-6.328-11.847-10.992c-4.094-4.665-8.709-11.184-13.851-19.558
	c-5.137-8.374-10.467-18.271-15.987-29.691l-4.566-8.282c-2.855-5.328-6.755-13.086-11.704-23.267
	c-4.952-10.185-9.329-20.037-13.134-29.554c-1.521-3.997-3.807-7.04-6.852-9.134l-1.429-0.859c-0.95-0.76-2.475-1.567-4.567-2.427
	c-2.095-0.859-4.28-1.475-6.566-1.854l-78.229,0.568c-7.994,0-13.418,1.811-16.273,5.428l-1.144,1.711
	C0.288,140.146,0,141.668,0,143.763c0,2.094,0.57,4.664,1.714,7.707c11.42,26.84,23.839,52.725,37.257,77.659
	s25.078,45.019,34.973,60.238c9.897,15.229,19.985,29.602,30.265,43.111c10.278,13.516,17.083,22.176,20.412,25.98
	c3.333,3.813,5.95,6.662,7.854,8.565l7.139,6.851c4.568,4.569,11.276,10.041,20.128,16.416c8.853,6.379,18.653,12.66,29.407,18.851
	c10.756,6.181,23.27,11.226,37.546,15.126c14.275,3.904,28.169,5.473,41.685,4.717h32.834c6.658-0.576,11.704-2.67,15.133-6.283
	l1.136-1.432c0.764-1.137,1.479-2.9,2.139-5.275c0.668-2.379,1-5,1-7.852c-0.194-8.184,0.429-15.559,1.853-22.124
	c1.423-6.563,3.045-11.513,4.858-14.847c1.813-3.33,3.859-6.139,6.137-8.418c2.281-2.282,3.908-3.666,4.861-4.142
	c0.948-0.479,1.705-0.804,2.276-0.999c4.568-1.521,9.944-0.048,16.136,4.43c6.188,4.473,11.99,9.996,17.418,16.56
	c5.426,6.569,11.943,13.94,19.556,22.124c7.616,8.186,14.276,14.271,19.984,18.273l5.708,3.426
	c3.813,2.287,8.762,4.381,14.854,6.283c6.081,1.902,11.409,2.379,15.983,1.428l73.087-1.141c7.229,0,12.854-1.197,16.845-3.572
	c3.998-2.379,6.373-5,7.139-7.851c0.764-2.854,0.805-6.092,0.146-9.712C546.781,404.25,546.115,401.725,545.45,400.298z"/>
</svg>
